<svg xmlns="http://www.w3.org/2000/svg" width="185" height="32" viewBox="0 0 185 32">
    <g fill="none" fill-rule="evenodd">
        <path fill="#FFF" d="M40 32c8.837 0 16-7.163 16-16S48.837 0 40 0 24 7.163 24 16s7.163 16 16 16zm0-8.585a7.415 7.415 0 1 1 0-14.83 7.415 7.415 0 0 1 0 14.83z"/>
        <path fill="#EF483E" d="M16 32c8.837 0 16-7.163 16-16S24.837 0 16 0 0 7.163 0 16s7.163 16 16 16zm0-8.585a7.415 7.415 0 1 1 0-14.83 7.415 7.415 0 0 1 0 14.83z"/>
        <g fill="#FFF" transform="translate(68 9)">
            <path d="M4.347 2.587H0V0h11.883v2.587H7.536V13.99H4.347V2.587zm11.034 11.659c-.826 0-1.571-.125-2.235-.373a4.82 4.82 0 0 1-1.706-1.068 4.742 4.742 0 0 1-1.097-1.675c-.257-.653-.386-1.385-.386-2.195 0-.81.129-1.544.386-2.204a4.724 4.724 0 0 1 1.097-1.685 4.935 4.935 0 0 1 1.706-1.078c.664-.255 1.409-.382 2.235-.382.826 0 1.574.127 2.244.382.67.255 1.243.614 1.717 1.078.474.463.84 1.025 1.097 1.685.257.66.386 1.394.386 2.204 0 .81-.129 1.542-.386 2.195a4.742 4.742 0 0 1-1.097 1.675 4.803 4.803 0 0 1-1.717 1.068c-.67.248-1.418.373-2.244.373zm0-2.077c.487 0 .897-.092 1.229-.275a2.16 2.16 0 0 0 .792-.735c.196-.307.335-.653.416-1.038a5.872 5.872 0 0 0 0-2.38 2.986 2.986 0 0 0-.416-1.04c-.197-.3-.46-.545-.792-.734-.332-.19-.742-.284-1.23-.284-.487 0-.893.094-1.218.284-.325.19-.586.434-.782.734-.197.301-.335.647-.417 1.039a5.872 5.872 0 0 0 0 2.38c.082.386.22.732.417 1.04.196.306.457.551.782.734.325.183.731.275 1.219.275zm13.47-1.901c-.27.078-.67.173-1.198.284a7.978 7.978 0 0 1-1.645.166c-1.436 0-2.465-.32-3.088-.96-.623-.64-.934-1.508-.934-2.606V3.86h2.864v2.724c0 .745.149 1.26.447 1.548.298.287.785.431 1.462.431.42 0 .813-.033 1.179-.098.365-.065.67-.13.914-.196V3.86h2.884v10.13h-2.884v-3.722zm4.656-6.408h2.884v4.135l3.86-4.135h3.392l-4.387 4.468 4.956 5.663h-3.494l-3.717-4.213-.61.647v3.566h-2.884V3.86zm14.365 10.386c-.501 0-.968-.06-1.402-.177a3.257 3.257 0 0 1-1.137-.548 2.57 2.57 0 0 1-.762-.941c-.183-.379-.274-.83-.274-1.352 0-.575.105-1.048.315-1.42.21-.373.48-.67.812-.892a3.705 3.705 0 0 1 1.138-.5c.426-.111.856-.2 1.29-.264.433-.066.86-.118 1.28-.157.42-.04.792-.098 1.117-.177.325-.078.582-.192.771-.342.19-.15.278-.37.265-.657 0-.287-.051-.522-.153-.705a1.08 1.08 0 0 0-.406-.422 1.637 1.637 0 0 0-.59-.196 4.994 4.994 0 0 0-.72-.049c-.57 0-1.016.118-1.341.353-.325.235-.515.627-.569 1.176h-2.884c.04-.64.21-1.18.508-1.617a3.371 3.371 0 0 1 1.137-1.048c.46-.261.975-.448 1.544-.559a9.096 9.096 0 0 1 1.747-.166c.528 0 1.063.036 1.605.108a5.044 5.044 0 0 1 1.483.421c.446.209.812.503 1.096.882.285.379.427.868.427 1.47v5.27c0 .458.027.895.081 1.313.054.418.15.732.285.94H51.61a3.88 3.88 0 0 1-.204-.979 3.784 3.784 0 0 1-1.625.96 6.744 6.744 0 0 1-1.91.275zm1.076-1.842c.57 0 1.01-.092 1.32-.275.312-.183.543-.401.692-.656a2.05 2.05 0 0 0 .274-.774c.034-.261.05-.47.05-.627V9.033a1.32 1.32 0 0 1-.446.245 4.257 4.257 0 0 1-.59.147c-.216.04-.44.072-.67.098-.23.026-.46.059-.69.098-.23.04-.447.092-.65.157a1.946 1.946 0 0 0-.539.264 1.271 1.271 0 0 0-.376.422c-.094.17-.142.385-.142.646 0 .262.048.474.142.637.095.164.224.294.386.392.163.098.352.167.57.206.216.04.44.059.67.059zM66.614 2.587h-4.347V0H74.15v2.587h-4.347V13.99h-3.19V2.587zm11.033 11.659c-.826 0-1.57-.125-2.234-.373a4.82 4.82 0 0 1-1.706-1.068 4.742 4.742 0 0 1-1.097-1.675c-.258-.653-.386-1.385-.386-2.195 0-.81.128-1.544.386-2.204a4.724 4.724 0 0 1 1.097-1.685 4.935 4.935 0 0 1 1.706-1.078c.663-.255 1.408-.382 2.234-.382.826 0 1.575.127 2.245.382.67.255 1.242.614 1.716 1.078.474.463.84 1.025 1.097 1.685.258.66.386 1.394.386 2.204 0 .81-.128 1.542-.386 2.195a4.742 4.742 0 0 1-1.097 1.675 4.803 4.803 0 0 1-1.716 1.068c-.67.248-1.419.373-2.245.373zm0-2.077c.488 0 .898-.092 1.23-.275a2.16 2.16 0 0 0 .792-.735c.196-.307.335-.653.416-1.038a5.872 5.872 0 0 0 0-2.38 2.986 2.986 0 0 0-.416-1.04c-.197-.3-.46-.545-.793-.734-.331-.19-.741-.284-1.229-.284-.487 0-.893.094-1.218.284-.325.19-.586.434-.783.734-.196.301-.335.647-.416 1.039a5.872 5.872 0 0 0 0 2.38c.081.386.22.732.416 1.04.197.306.458.551.783.734.325.183.73.275 1.218.275zm13.471-1.901c-.27.078-.67.173-1.198.284a7.978 7.978 0 0 1-1.645.166c-1.436 0-2.465-.32-3.088-.96-.623-.64-.934-1.508-.934-2.606V3.86h2.864v2.724c0 .745.149 1.26.447 1.548.298.287.785.431 1.462.431.42 0 .813-.033 1.178-.098.366-.065.67-.13.914-.196V3.86h2.885v10.13h-2.885v-3.722zm4.656-6.408h2.884v4.135l3.86-4.135h3.392l-4.388 4.468 4.957 5.663h-3.494l-3.717-4.213-.61.647v3.566h-2.884V3.86zm14.365 10.386c-.501 0-.969-.06-1.402-.177a3.257 3.257 0 0 1-1.138-.548 2.57 2.57 0 0 1-.761-.941c-.183-.379-.275-.83-.275-1.352 0-.575.105-1.048.315-1.42.21-.373.481-.67.813-.892a3.705 3.705 0 0 1 1.137-.5c.427-.111.857-.2 1.29-.264.434-.066.86-.118 1.28-.157.42-.04.792-.098 1.117-.177.325-.078.583-.192.772-.342.19-.15.278-.37.264-.657 0-.287-.05-.522-.152-.705a1.08 1.08 0 0 0-.406-.422 1.637 1.637 0 0 0-.59-.196 4.994 4.994 0 0 0-.72-.049c-.57 0-1.016.118-1.341.353-.325.235-.515.627-.57 1.176h-2.884c.041-.64.21-1.18.508-1.617a3.371 3.371 0 0 1 1.138-1.048c.46-.261.975-.448 1.544-.559a9.096 9.096 0 0 1 1.747-.166c.528 0 1.063.036 1.604.108a5.044 5.044 0 0 1 1.483.421c.447.209.813.503 1.097.882.285.379.427.868.427 1.47v5.27c0 .458.027.895.081 1.313.054.418.149.732.284.94h-2.925a3.88 3.88 0 0 1-.203-.979 3.784 3.784 0 0 1-1.625.96 6.744 6.744 0 0 1-1.91.275zm1.076-1.842c.569 0 1.01-.092 1.32-.275.312-.183.542-.401.691-.656a2.05 2.05 0 0 0 .274-.774c.034-.261.051-.47.051-.627V9.033a1.32 1.32 0 0 1-.447.245 4.257 4.257 0 0 1-.589.147c-.216.04-.44.072-.67.098-.23.026-.46.059-.69.098-.231.04-.448.092-.65.157a1.946 1.946 0 0 0-.54.264 1.271 1.271 0 0 0-.375.422c-.095.17-.142.385-.142.646 0 .262.047.474.142.637.095.164.224.294.386.392.163.098.352.167.569.206.217.04.44.059.67.059z"/>
            <ellipse cx="60.475" cy="8.437" rx="1.975" ry="1.905"/>
        </g>
    </g>
</svg>
